# xmcd
#
# Track frame offsets: 
#        150
#        17487
#        34787
#        50700
#        67567
#        88482
#        105210
#        119980
#        139302
#        156640
#        171690
#        189025
#
# Disc length: 2807 seconds
#
# Revision: 2
# Processed by: cddbd v1.4PL0 Copyright (c) Steve Scherf et al.
# Submitted via: ExactAudioCopy v0.90b3
#
DISCID=a90af50c
DTITLE=John Anderson - Nobody's Got It All
DYEAR=2001
DGENRE=Country
TTITLE0=You Ain't Hurt Nothin' Yet
TTITLE1=It Ain't Easy Being Me
TTITLE2=I Ain't Afraid Of Dying
TTITLE3=Nobody's Got It All
TTITLE4=The Call
TTITLE5=Appalachian Blue
TTITLE6=The Big Revival
TTITLE7=Go To Town
TTITLE8=Five Generations Of Rock County Wilsons
TTITLE9=Baby's Gone Home To Mama
TTITLE10=I Love You Again
TTITLE11=Atlantic City
EXTD=YEAR: 2001 ID3G:   2
EXTT0=
EXTT1=
EXTT2=
EXTT3=
EXTT4=
EXTT5=
EXTT6=
EXTT7=
EXTT8=
EXTT9=
EXTT10=
EXTT11=
PLAYORDER=
